<?xml version="1.0" encoding="utf-8"?>
<!-- Generator: Adobe Illustrator 16.0.0, SVG Export Plug-In . SVG Version: 6.00 Build 0)  -->
<!DOCTYPE svg PUBLIC "-//W3C//DTD SVG 1.1//EN" "http://www.w3.org/Graphics/SVG/1.1/DTD/svg11.dtd">
<svg version="1.1"
	 id="Layer_1" xmlns:dc="http://purl.org/dc/elements/1.1/" xmlns:cc="http://creativecommons.org/ns#" xmlns:svg="http://www.w3.org/2000/svg" xmlns:rdf="http://www.w3.org/1999/02/22-rdf-syntax-ns#"
	 xmlns="http://www.w3.org/2000/svg" xmlns:xlink="http://www.w3.org/1999/xlink" x="0px" y="0px" width="131px" height="120px"
	 viewBox="0 0 131 120" enable-background="new 0 0 131 120" xml:space="preserve">
<path fill="none" stroke="#FFFFFF" stroke-width="5" stroke-linecap="round" d="M103.969,29.438
	c2.113-10.753,0.932-18.914-4.062-22.156C98.242,6.2,96.246,5.727,94,5.812c-12.129,0.46-31.698,17.16-47.688,41.781
	c-18.95,29.181-25.685,58.426-15.031,65.344c5.057,3.283,13.115,0.956,22.219-5.531"/>
<path fill="none" stroke="#FFFFFF" stroke-width="5" stroke-linecap="round" d="M113.688,77.156
	c8.994-3.489,14.525-8.266,14.812-13.75c0.665-12.686-26.941-24.429-61.688-26.25c-3.257-0.171-6.46-0.261-9.594-0.25
	C26.932,37.008,3.29,45.316,2.688,56.812C2.4,62.287,7.388,67.595,15.938,72"/>
<path fill="none" stroke="#FFFFFF" stroke-width="5" stroke-linecap="round" d="M57,10.531c-6.154-5.106-11.925-7.848-16.562-7.5
	C39.203,3.124,38.061,3.428,37,3.969c-11.318,5.767-7.702,35.592,8.094,66.594s37.775,51.454,49.094,45.688
	c10.885-5.546,7.947-33.338-6.344-63.031"/>
<path fill="#FFFFFF" d="M73.5,61c0,4.143-3.357,7.5-7.5,7.5c-4.142,0-7.5-3.357-7.5-7.5l0,0c0-4.142,3.358-7.5,7.5-7.5
	C70.143,53.5,73.5,56.858,73.5,61z"/>
</svg>
