<?xml version="1.0" encoding="utf-8"?>
<!-- Generator: Adobe Illustrator 16.0.0, SVG Export Plug-In . SVG Version: 6.00 Build 0)  -->
<!DOCTYPE svg PUBLIC "-//W3C//DTD SVG 1.1//EN" "http://www.w3.org/Graphics/SVG/1.1/DTD/svg11.dtd">
<svg version="1.1" id="Layer_1" xmlns="http://www.w3.org/2000/svg" xmlns:xlink="http://www.w3.org/1999/xlink" x="0px" y="0px"
	 width="128px" height="136.5px" viewBox="0 0 128 136.5" enable-background="new 0 0 128 136.5" xml:space="preserve">
<g>
	<path fill-rule="evenodd" clip-rule="evenodd" fill="#FFFFFF" d="M1.173,77.742c0.261-18.461,3.815-34.827,11.964-50.201
		C20.512,13.628,32.454,8.074,47.435,7.312c4.155-0.211,8.299-0.673,12.442-1.086c2.6-0.26,5.38,0.679,7-3.092
		c0.56-1.304,5.282-2.248,7.103-1.343c9.054,4.504,18.38,8.852,26.496,14.779c22.035,16.095,29.93,38.443,25.608,65.01
		c-4.277,26.297-21.024,41.958-45.373,50.149c-16.566,5.573-33.359,6.074-49.862-0.648C11.361,123.144,3.787,107.104,1.68,87.503
		C1.29,83.865,1.292,80.186,1.173,77.742z M8.076,73.83c0.194,0.054,0.389,0.106,0.583,0.16c0.394,4.643,0.664,9.302,1.203,13.928
		c2.286,19.61,12.9,32.106,32.224,36.545c18.8,4.319,37.461,4.649,53.182-8.54c17.875-14.998,25.154-34.939,22.597-57.988
		c-1.824-16.436-10.316-28.957-25.353-36.529c-1.512-0.761-3.385-0.845-5.108-1.139c-2.943-0.502-6.313-0.171-8.776-1.519
		c-7.659-4.192-15.428-7.01-24.312-5.551c-24.507,4.025-34.524,10.668-41.551,34.679C10.309,56.266,9.589,65.164,8.076,73.83z"/>
	<path fill-rule="evenodd" clip-rule="evenodd" fill="#FFFFFF" d="M95.836,77.113c-8.976,11.685-20.62,17.319-35.125,16.086
		c-14.157-1.202-26.17-6.347-32.757-20.444c-1.34,6.582,0.748,11.774,4.621,16.36c12.044,14.259,40.238,17.131,54.858,5.532
		C92.947,90.273,96.088,84.6,95.836,77.113z M89.376,54.859c-1.418-0.98-3.338-3.27-5.552-3.603
		c-2.997-0.451-5.501,1.523-5.396,5.055c0.098,3.292,0.855,6.731,5.063,6.597C87.217,62.788,88.78,59.942,89.376,54.859z
		 M47.664,58.05c-0.965-4.675-2.167-7.477-6.096-7.727c-3.458-0.22-5.066,1.925-5.262,5.215c-0.225,3.772,2.339,6.972,5.814,6.341
		C44.134,61.514,45.827,59.385,47.664,58.05z"/>
	<path fill-rule="evenodd" clip-rule="evenodd" fill="#FFFFFF" d="M95.836,77.113c0.252,7.486-2.889,13.16-8.403,17.534
		c-14.62,11.599-42.814,8.727-54.858-5.532c-3.873-4.586-5.961-9.778-4.621-16.36c6.587,14.098,18.6,19.242,32.757,20.444
		C75.216,94.433,86.86,88.798,95.836,77.113z"/>
	<path fill-rule="evenodd" clip-rule="evenodd" fill="#FFFFFF" d="M89.376,54.859c-0.596,5.083-2.159,7.929-5.885,8.048
		c-4.208,0.135-4.966-3.304-5.063-6.597c-0.104-3.532,2.399-5.506,5.396-5.055C86.038,51.589,87.958,53.878,89.376,54.859z"/>
	<path fill-rule="evenodd" clip-rule="evenodd" fill="#FFFFFF" d="M47.664,58.05c-1.837,1.335-3.53,3.464-5.544,3.83
		c-3.475,0.631-6.039-2.569-5.814-6.341c0.196-3.29,1.804-5.435,5.262-5.215C45.497,50.573,46.699,53.375,47.664,58.05z"/>
</g>
</svg>
