<?xml version="1.0" encoding="utf-8"?>
<!-- Generator: Adobe Illustrator 16.0.0, SVG Export Plug-In . SVG Version: 6.00 Build 0)  -->
<!DOCTYPE svg PUBLIC "-//W3C//DTD SVG 1.1//EN" "http://www.w3.org/Graphics/SVG/1.1/DTD/svg11.dtd">
<svg version="1.1" id="Layer_1" xmlns="http://www.w3.org/2000/svg" xmlns:xlink="http://www.w3.org/1999/xlink" x="0px" y="0px"
	 width="128px" height="128px" viewBox="0 0 128 128" enable-background="new 0 0 128 128" xml:space="preserve">
<g>
	<path fill="#FFFFFF" d="M118.328,126.766H9.792c-4.953,0-8.982-4.028-8.982-8.984V9.248c0-4.953,4.03-8.982,8.982-8.982h108.536
		c4.951,0,8.981,4.03,8.981,8.982v108.534C127.31,122.737,123.279,126.766,118.328,126.766z M9.792,4.951
		c-2.37,0-4.297,1.927-4.297,4.297v108.534c0,2.37,1.927,4.299,4.297,4.299h108.536c2.37,0,4.296-1.929,4.296-4.299V9.248
		c0-2.37-1.926-4.297-4.296-4.297H9.792z"/>
	<g>
		<path fill="#FFFFFF" d="M47.265,76.27l-3.373,12.157H32.787l14.478-47.366h14.054l14.687,47.366H64.481L60.827,76.27H47.265z
			 M59.281,68.257L56.33,58.208c-0.843-2.812-1.686-6.324-2.39-9.136h-0.141c-0.702,2.812-1.405,6.396-2.178,9.136L48.81,68.257
			H59.281z"/>
		<path fill="#FFFFFF" d="M92.592,44.505c0,2.951-2.247,5.341-5.761,5.341c-3.374,0-5.623-2.39-5.552-5.341
			c-0.071-3.093,2.178-5.412,5.621-5.412C90.345,39.093,92.523,41.412,92.592,44.505z M81.561,88.426V54.062h10.681v34.365H81.561z"
			/>
	</g>
</g>
</svg>
