<?xml version="1.0" encoding="utf-8"?>
<!-- Generator: Adobe Illustrator 16.0.0, SVG Export Plug-In . SVG Version: 6.00 Build 0)  -->
<!DOCTYPE svg PUBLIC "-//W3C//DTD SVG 1.1//EN" "http://www.w3.org/Graphics/SVG/1.1/DTD/svg11.dtd">
<svg version="1.1" id="Layer_1" xmlns="http://www.w3.org/2000/svg" xmlns:xlink="http://www.w3.org/1999/xlink" x="0px" y="0px"
	 width="128px" height="128px" viewBox="0 0 128 128" enable-background="new 0 0 128 128" xml:space="preserve">
<g>
	<path fill="#FFFFFF" d="M118.356,126.854H9.823c-4.954,0-8.984-4.029-8.984-8.981V9.338c0-4.953,4.03-8.982,8.984-8.982h108.533
		c4.953,0,8.984,4.03,8.984,8.982v108.535C127.34,122.826,123.309,126.854,118.356,126.854z M9.823,5.041
		c-2.37,0-4.299,1.928-4.299,4.297v108.535c0,2.367,1.929,4.296,4.299,4.296h108.533c2.37,0,4.299-1.929,4.299-4.296V9.338
		c0-2.37-1.929-4.297-4.299-4.297H9.823z"/>
	<g>
		<path fill="#FFFFFF" d="M48.629,41.151v47.364H37.877V41.151H48.629z"/>
		<path fill="#FFFFFF" d="M90.655,38.621v39.636c0,3.864,0.139,7.941,0.279,10.258h-9.484l-0.494-5.058h-0.14
			c-2.18,3.864-6.326,5.831-10.752,5.831c-8.151,0-14.688-6.957-14.688-17.638c-0.069-11.595,7.169-18.272,15.391-18.272
			c4.218,0,7.52,1.476,9.066,3.865h0.14V38.621H90.655z M79.971,68.699c0-0.563-0.069-1.336-0.14-1.897
			c-0.634-2.882-2.954-5.271-6.254-5.271c-4.848,0-7.378,4.357-7.378,9.768c0,5.833,2.88,9.488,7.307,9.488
			c3.093,0,5.552-2.109,6.186-5.131c0.21-0.773,0.279-1.547,0.279-2.459V68.699z"/>
	</g>
</g>
</svg>
