<?xml version="1.0" encoding="utf-8"?>
<!-- Generator: Adobe Illustrator 16.0.0, SVG Export Plug-In . SVG Version: 6.00 Build 0)  -->
<!DOCTYPE svg PUBLIC "-//W3C//DTD SVG 1.1//EN" "http://www.w3.org/Graphics/SVG/1.1/DTD/svg11.dtd">
<svg version="1.1" id="Layer_1" xmlns="http://www.w3.org/2000/svg" xmlns:xlink="http://www.w3.org/1999/xlink" x="0px" y="0px"
	 width="128px" height="128px" viewBox="0 0 128 128" enable-background="new 0 0 128 128" xml:space="preserve">
<g>
	<path fill="#FFFFFF" d="M117.982,127.001H9.018c-4.972,0-9.018-4.047-9.018-9.019V9.018C0,4.046,4.046,0,9.018,0h108.964
		c4.972,0,9.019,4.046,9.019,9.018v108.964C127.001,122.954,122.954,127.001,117.982,127.001z M9.018,4.704
		c-2.379,0-4.314,1.935-4.314,4.314v108.964c0,2.379,1.935,4.315,4.314,4.315h108.964c2.379,0,4.315-1.936,4.315-4.315V9.018
		c0-2.379-1.936-4.314-4.315-4.314H9.018z"/>
	<g>
		<path fill="#FFFFFF" d="M33.091,41.591c3.315-0.564,7.972-0.987,14.534-0.987c6.632,0,11.358,1.27,14.534,3.81
			c3.034,2.398,5.081,6.35,5.081,11.006c0,4.657-1.553,8.607-4.375,11.289c-3.668,3.457-9.101,5.009-15.45,5.009
			c-1.411,0-2.681-0.071-3.669-0.211v17.001H33.091V41.591z M43.745,63.181c0.917,0.211,2.046,0.283,3.598,0.283
			c5.715,0,9.243-2.893,9.243-7.761c0-4.375-3.034-6.986-8.396-6.986c-2.188,0-3.669,0.213-4.445,0.424V63.181z"/>
		<path fill="#FFFFFF" d="M72.178,79.126c1.976,1.199,6.068,2.611,9.242,2.611c3.248,0,4.586-1.13,4.586-2.894
			s-1.059-2.609-5.078-3.951c-7.128-2.398-9.879-6.279-9.808-10.372c0-6.42,5.504-11.289,14.039-11.289
			c4.024,0,7.621,0.917,9.738,1.975l-1.906,7.408c-1.553-0.846-4.516-1.975-7.478-1.975c-2.609,0-4.093,1.059-4.093,2.823
			c0,1.623,1.341,2.469,5.574,3.95c6.562,2.258,9.313,5.574,9.382,10.653c0,6.422-5.078,11.148-14.956,11.148
			c-4.516,0-8.536-0.988-11.147-2.4L72.178,79.126z"/>
	</g>
</g>
</svg>
