<?xml version="1.0" encoding="utf-8"?>
<!-- Generator: Adobe Illustrator 16.0.0, SVG Export Plug-In . SVG Version: 6.00 Build 0)  -->
<!DOCTYPE svg PUBLIC "-//W3C//DTD SVG 1.1//EN" "http://www.w3.org/Graphics/SVG/1.1/DTD/svg11.dtd">
<svg version="1.1" id="Layer_1" xmlns="http://www.w3.org/2000/svg" xmlns:xlink="http://www.w3.org/1999/xlink" x="0px" y="0px"
	 width="128px" height="128px" viewBox="0 0 128 128" enable-background="new 0 0 128 128" xml:space="preserve">
<path fill="#FFFFFF" d="M71.589,25.093C57.762,38.912,46.132,50.176,45.588,50.176c-0.464,0-8.061-5.58-16.757-12.354L13.085,25.455
	L0.273,31.867v64.096l12.818,6.408l14.555-11.358c8.06-6.318,15.474-11.986,16.481-12.631c1.837-1.104,3.667,0.546,27.383,24.176
	l25.364,25.358l15.562-6.318L128,115.372V12.455l-11.899-4.76c-6.496-2.659-13.548-5.402-15.656-6.231L96.688,0L71.599,25.088
	L71.589,25.093z M96.406,63.917c0,14.105-0.177,25.64-0.547,25.64c-1.29,0-32.416-25.085-32.145-25.913
	c0.283-1.001,30.953-25.268,32.057-25.268C96.136,38.28,96.417,49.813,96.406,63.917L96.406,63.917z M23.613,54.758l9.157,9.153
	l-9.157,9.161c-5.032,5.038-9.434,9.155-9.796,9.155c-0.464,0-0.742-8.24-0.742-18.311c0-10.063,0.278-18.314,0.742-18.314
	C14.184,45.608,18.582,49.733,23.613,54.758L23.613,54.758z"/>
</svg>
